/* XPM */
static char *result[] = {
/* columns rows colors chars-per-pixel */
"32 32 79 1 ",
"  c black",
". c #444444",
"X c #9D9D9D",
"o c #C5C5C5",
"O c gray93",
"+ c #EAEAEA",
"@ c gray76",
"# c #9A9A9A",
"$ c #3C3C3C",
"% c #5B5B5B",
"& c #FBFBFB",
"* c white",
"= c gray98",
"- c gray44",
"; c gray38",
": c gray64",
"> c #5F5F5F",
", c gray40",
"< c #A9A9A9",
"1 c #FDFDFD",
"2 c gray45",
"3 c #020202",
"4 c #E2E2E2",
"5 c gray97",
"6 c #494949",
"7 c gray31",
"8 c #E7E7E7",
"9 c #040404",
"0 c gray32",
"q c #8B8B8B",
"w c #959595",
"e c #5D5D5D",
"r c gray75",
"t c #282828",
"y c #A4A4A4",
"u c #F1F1F1",
"i c #010101",
"p c gray6",
"a c #D8D8D8",
"s c #E9E9E9",
"d c #E4E4E4",
"f c #202020",
"g c #C0C0C0",
"h c #D0D0D0",
"j c gray18",
"k c #AFAFAF",
"l c gray74",
"z c #222222",
"x c #343434",
"c c #BBBBBB",
"v c gray20",
"b c #1D1D1D",
"n c #C8C8C8",
"m c gray83",
"M c gray88",
"N c #EEEEEE",
"B c #E1E1E1",
"V c #7E7E7E",
"C c gray48",
"Z c #909090",
"A c #747474",
"S c #151515",
"D c #F8F8F8",
"F c gray14",
"G c #2D2D2D",
"H c gray94",
"J c #0C0C0C",
"K c gray13",
"L c gray15",
"P c gray42",
"I c #818181",
"U c #0E0E0E",
"Y c #B2B2B2",
"T c #797979",
"R c #7C7C7C",
"E c gray86",
"W c #AAAAAA",
"Q c gray25",
"! c #060606",
/* pixels */
"                                ",
"                                ",
"                                ",
"                                ",
"            .XoO+@#$            ",
"           %&******=-           ",
"          ;**&:>,<1**2          ",
"         34*56    7=*89         ",
"         0**q      w**e         ",
"         r**t      $**y         ",
"         1*u       i1*o         ",
"        p**a        s*d         ",
"        f**g        h*19        ",
"        j**k        l**z        ",
"        x**k        c**t        ",
"        x**k        c**t        ",
"        x**k        c**t        ",
"        v**k        c**f        ",
"        b**r        n**9        ",
"        i1*m        M*N         ",
"         B*s        =*m         ",
"         o**b      x**c         ",
"         V**C      Z**A         ",
"         SD*dF    GH*HJ         ",
"          X**s,KLPH**I          ",
"          UY*******&T           ",
"            RE1**8WQ            ",
"              !jz               ",
"                                ",
"                                ",
"                                ",
"                                "
};
