/* XPM */
static char *result[] = {
/* columns rows colors chars-per-pixel */
"32 32 23 1 ",
"  c black",
". c gray23",
"X c #979797",
"o c #4B4B4B",
"O c gray13",
"+ c #818181",
"@ c gainsboro",
"# c white",
"$ c #646464",
"% c #111111",
"& c #6A6A6A",
"* c #C6C6C6",
"= c #464646",
"- c gray98",
"; c #EAEAEA",
": c #585858",
"> c #E2E2E2",
", c #838383",
"< c gray12",
"1 c #535353",
"2 c gray67",
"3 c #494949",
"4 c #020202",
/* pixels */
"                                ",
"                                ",
"                                ",
"                                ",
"                .Xo             ",
"             O+@##$             ",
"          %&*#####$             ",
"         =-####;##$             ",
"         :##>,<,##$             ",
"         1234  ,##$             ",
"               ,##$             ",
"               ,##$             ",
"               ,##$             ",
"               ,##$             ",
"               ,##$             ",
"               ,##$             ",
"               ,##$             ",
"               ,##$             ",
"               ,##$             ",
"               ,##$             ",
"               ,##$             ",
"               ,##$             ",
"               ,##$             ",
"               ,##$             ",
"               ,##$             ",
"               ,##$             ",
"               ,##$             ",
"                                ",
"                                ",
"                                ",
"                                ",
"                                "
};
