/* XPM */
static char *result[] = {
/* columns rows colors chars-per-pixel */
"32 32 78 1 ",
"  c black",
". c #484848",
"X c gray61",
"o c #C5C5C5",
"O c gray94",
"+ c #E4E4E4",
"@ c #B7B7B7",
"# c gray52",
"$ c gray14",
"% c gray8",
"& c gray64",
"* c white",
"= c gray67",
"- c #0B0B0B",
"; c #060606",
": c gray84",
"> c #CDCDCD",
", c #6F6F6F",
"< c #4C4C4C",
"1 c gray35",
"2 c #959595",
"3 c gray59",
"4 c gray54",
"5 c #9D9D9D",
"6 c gray2",
"7 c gray31",
"8 c #373737",
"9 c gray98",
"0 c gray90",
"q c gray4",
"w c #9A9A9A",
"e c #767676",
"r c #393939",
"t c gray57",
"y c #515151",
"u c #A7A7A7",
"i c #727272",
"p c #6A6A6A",
"a c #313131",
"s c #AAAAAA",
"d c gray50",
"f c #A0A0A0",
"g c #282828",
"h c #C0C0C0",
"j c gray1",
"k c #C6C6C6",
"l c #FBFBFB",
"z c gray18",
"x c #7E7E7E",
"c c gray46",
"v c #B6B6B6",
"b c #555555",
"n c #D5D5D5",
"m c gray26",
"M c #E7E7E7",
"N c #1E1E1E",
"B c #F3F3F3",
"V c #F1F1F1",
"C c #2C2C2C",
"Z c #232323",
"A c gray92",
"S c #F8F8F8",
"D c #3C3C3C",
"F c gray9",
"G c gray88",
"H c #FDFDFD",
"J c #4E4E4E",
"K c #D2D2D2",
"L c gray39",
"P c #040404",
"I c gray74",
"U c #808080",
"Y c #010101",
"T c gray79",
"R c gray25",
"E c gray20",
"W c gray11",
"Q c gray80",
/* pixels */
"                                ",
"                                ",
"                                ",
"                                ",
"            .XoO+@#$            ",
"          %&********=-          ",
"         ;:**>,<12***3          ",
"         4**56    7***8         ",
"        69*0q      w**e         ",
"        r**t       y**u         ",
"        i**p       a**s         ",
"                   <**d         ",
"                   f**$         ",
"                  g9*h          ",
"                 jk*lz          ",
"                 5**x           ",
"                c**vj           ",
"               b**n-            ",
"              m9*MN             ",
"             aB*VC              ",
"            ZA*SD               ",
"           FG*HJ                ",
"          -K**L                 ",
"         PI**U                  ",
"        Yu**TRRRRRRRRRRE        ",
"        W**************Q        ",
"        W**************Q        ",
"                                ",
"                                ",
"                                ",
"                                ",
"                                "
};
