/* XPM */
static char *result[] = {
/* columns rows colors chars-per-pixel */
"32 32 91 1 ",
"  c black",
". c #4C4C4C",
"X c gray61",
"o c #CACACA",
"O c #F3F3F3",
"+ c #DADADA",
"@ c #AFAFAF",
"# c #767676",
"$ c gray4",
"% c gray14",
"& c #BBBBBB",
"* c white",
"= c gray90",
"- c #555555",
"; c gray5",
": c gray86",
"> c LightGray",
", c #6D6D6D",
"< c gray28",
"1 c #5F5F5F",
"2 c gray59",
"3 c #FDFDFD",
"4 c #393939",
"5 c gray67",
"6 c #B4B4B4",
"7 c gray23",
"8 c gray85",
"9 c #090909",
"0 c #181818",
"q c #ECECEC",
"w c #111111",
"e c #A4A4A4",
"r c #484848",
"t c #3C3C3C",
"y c gray69",
"u c gray45",
"i c DimGray",
"p c gray8",
"a c gray25",
"s c #252525",
"d c gray40",
"f c #808080",
"g c #989898",
"h c #606060",
"j c #191919",
"k c gray97",
"l c #F1F1F1",
"z c #373737",
"x c #565656",
"c c gray68",
"v c #C0C0C0",
"b c #C8C8C8",
"n c gray92",
"m c gray93",
"M c gray37",
"N c #E7E7E7",
"B c #8E8E8E",
"V c #131313",
"C c #747474",
"Z c gray52",
"A c #A7A7A7",
"S c gray88",
"D c #2F2F2F",
"F c gray58",
"G c #EAEAEA",
"H c #7B7B7B",
"J c #B9B9B9",
"K c gray84",
"L c #6F6F6F",
"P c #777777",
"I c #1E1E1E",
"U c #B2B2B2",
"Y c gray34",
"T c gray57",
"R c #3E3E3E",
"E c #161616",
"W c gray89",
"Q c #FBFBFB",
"! c #2D2D2D",
"~ c gray48",
"^ c gray95",
"/ c gray47",
"( c gray17",
") c #848484",
"_ c #797979",
"` c #F6F6F6",
"' c #060606",
"] c #9A9A9A",
"[ c #0B0B0B",
"{ c gray21",
"} c gray11",
/* pixels */
"                                ",
"                                ",
"                                ",
"                                ",
"            .XoO+@#$            ",
"          %&*******=-           ",
"         ;:**>,<123**4          ",
"         5**6$    7**89         ",
"        0**qw      e**r         ",
"        t**y       u**i         ",
"        paas       d**f         ",
"                   g**h         ",
"                  jk*lw         ",
"                 zo**x          ",
"             cvbn**mM           ",
"             N*****BV           ",
"             CfZAS**mD          ",
"                 9F**G;         ",
"                   c**H         ",
"                   4**J         ",
"                   ;**K         ",
"        L**P       I**v         ",
"        t**U       Y**T         ",
"        93**R     EW*Q!         ",
"         ~**^/(94)^**)          ",
"          _`********U'          ",
"           j]S***l&a            ",
"              [{}               ",
"                                ",
"                                ",
"                                ",
"                                "
};
