/* XPM */
static char *result[] = {
/* columns rows colors chars-per-pixel */
"32 32 48 1 ",
"  c black",
". c #2A2A2A",
"X c #C0C0C0",
"o c gray7",
"O c #010101",
"+ c #CDCDCD",
"@ c white",
"# c #181818",
"$ c gray44",
"% c #202020",
"& c gray96",
"* c #BBBBBB",
"= c gray92",
"- c #E1E1E1",
"; c gray38",
": c gray36",
"> c gray81",
", c gray9",
"< c gray94",
"1 c gray73",
"2 c gray67",
"3 c #1B1B1B",
"4 c #4C4C4C",
"5 c gray6",
"6 c #E7E7E7",
"7 c gray61",
"8 c gray98",
"9 c gray17",
"0 c #3E3E3E",
"q c gray51",
"w c #090909",
"e c gray87",
"r c gray85",
"t c #060606",
"y c #8E8E8E",
"u c #373737",
"i c #313131",
"p c #FDFDFD",
"a c gray59",
"s c #040404",
"d c LightGray",
"f c gray80",
"g c #F3F3F3",
"h c #C5C5C5",
"j c gray19",
"k c #2C2C2C",
"l c gray25",
"z c gray13",
/* pixels */
"                                ",
"                                ",
"                                ",
"                                ",
"                 .XXXo          ",
"                O+@@@#          ",
"                $@@@@#          ",
"               %&@@@@#          ",
"               *@=-@@#          ",
"              ;@@:>@@#          ",
"             ,<@1 >@@#          ",
"             2@&3 >@@#          ",
"            4@@$  >@@#          ",
"           56@+O  >@@#          ",
"           7@89   >@@#          ",
"          0@@q    >@@#          ",
"         we@rt    >@@#          ",
"         y@@u     >@@#          ",
"        ip@a      >@@#          ",
"       sd@@fXXXXXXg@@hXXj       ",
"       k@@@@@@@@@@@@@@@@l       ",
"       zXXXXXXXXXXg@@hXXj       ",
"                  >@@#          ",
"                  >@@#          ",
"                  >@@#          ",
"                  >@@#          ",
"                  >@@#          ",
"                                ",
"                                ",
"                                ",
"                                ",
"                                "
};
