/* XPM */
static char *result[] = {
/* columns rows colors chars-per-pixel */
"32 32 72 1 ",
"  c black",
". c #7E7E7E",
"X c #C0C0C0",
"o c #060606",
"O c white",
"+ c gray3",
"@ c #DADADA",
"# c gray98",
"$ c #C5C5C5",
"% c gray6",
"& c #A9A9A9",
"* c #2A2A2A",
"= c gray55",
"- c #444444",
"; c #717171",
": c gray37",
"> c #555555",
", c #777777",
"< c #3A3A3A",
"1 c #535353",
"2 c #939393",
"3 c #B2B2B2",
"4 c #A7A7A7",
"5 c #797979",
"6 c #929292",
"7 c #ECECEC",
"8 c gray70",
"9 c #161616",
"0 c #AAAAAA",
"q c #FDFDFD",
"w c gray87",
"e c gray79",
"r c #EAEAEA",
"t c gray91",
"y c #131313",
"u c #E9E9E9",
"i c #FBFBFB",
"p c #747474",
"a c #565656",
"s c #010101",
"d c gray13",
"f c #4C4C4C",
"g c #282828",
"h c #626262",
"j c #3C3C3C",
"k c gray29",
"l c #959595",
"z c #464646",
"x c #6D6D6D",
"c c gray43",
"v c #343434",
"b c #C8C8C8",
"n c #020202",
"m c #F1F1F1",
"M c gray19",
"N c gray86",
"B c #070707",
"V c #272727",
"C c #0B0B0B",
"Z c gray28",
"A c gray67",
"S c #414141",
"D c #989898",
"F c #F8F8F8",
"G c #6C6C6C",
"H c gray27",
"J c #D5D5D5",
"K c gray93",
"L c #222222",
"P c gray7",
"I c gray16",
"U c #393939",
/* pixels */
"                                ",
"                                ",
"                                ",
"                                ",
"           .XXXXXXXXXXXo        ",
"           XOOOOOOOOOOO+        ",
"           @OOOOOOOOOOO+        ",
"           #O$                  ",
"          %OO&                  ",
"          *OO=                  ",
"          -OO;                  ",
"          :OO>                  ",
"          ,OO<12345-            ",
"          6OO7OOOOOO89          ",
"          0OOOqwerOOOty         ",
"          5uip%   a#OO2         ",
"           sd      fOOqg        ",
"                    0OO5        ",
"                    hOO6        ",
"                    jOO4        ",
"                    kOOl        ",
"         ,OOz       xOOc        ",
"         vOO=       bOOz        ",
"         nmO#M     pOONB        ",
"          xOOm;VCZAOOOS         ",
"           DOOOOOOOOFG          ",
"            HJOOOOK8L           ",
"              PIU9              ",
"                                ",
"                                ",
"                                ",
"                                "
};
