/* XPM */
static char *result[] = {
/* columns rows colors chars-per-pixel */
"32 32 93 2 ",
"   c black",
".  c #020202",
"X  c #414141",
"o  c #848484",
"O  c gray63",
"+  c gray73",
"@  c #2D2D2D",
"#  c gray2",
"$  c #727272",
"%  c #E4E4E4",
"&  c white",
"*  c #3C3C3C",
"=  c gray13",
"-  c gray86",
";  c gray95",
":  c gray79",
">  c #1E1E1E",
",  c #E2E2E2",
"<  c gray92",
"1  c #606060",
"2  c #010101",
"3  c gray76",
"4  c gray68",
"5  c #131313",
"6  c #656565",
"7  c #CECECE",
"8  c #040404",
"9  c #CDCDCD",
"0  c #F8F8F8",
"q  c #282828",
"w  c #717171",
"e  c #6D6D6D",
"r  c gray55",
"t  c gray75",
"y  c gray94",
"u  c gray70",
"i  c #767676",
"p  c #9D9D9D",
"a  c #5B5B5B",
"s  c #E1E1E1",
"d  c #B7B7B7",
"f  c #0C0C0C",
"g  c gray74",
"h  c #F6F6F6",
"j  c #F1F1F1",
"k  c gray67",
"l  c #888888",
"z  c #A9A9A9",
"x  c #EEEEEE",
"c  c #C5C5C5",
"v  c #D0D0D0",
"b  c #B2B2B2",
"n  c #161616",
"m  c #2C2C2C",
"M  c #ECECEC",
"N  c gray35",
"B  c #515151",
"V  c gray88",
"C  c #FBFBFB",
"Z  c #101010",
"A  c #D5D5D5",
"S  c #3A3A3A",
"D  c gray97",
"F  c #9A9A9A",
"G  c #535353",
"H  c #0B0B0B",
"J  c #777777",
"K  c gray40",
"L  c gray62",
"P  c #2F2F2F",
"I  c #484848",
"U  c #7C7C7C",
"Y  c #A7A7A7",
"T  c #272727",
"R  c #0E0E0E",
"E  c #979797",
"W  c gray54",
"Q  c gray1",
"!  c #A2A2A2",
"~  c #959595",
"^  c #181818",
"/  c #AAAAAA",
"(  c gray26",
")  c #111111",
"_  c #505050",
"`  c #E7E7E7",
"'  c gray16",
"]  c gray23",
"[  c #151515",
"{  c #B4B4B4",
"}  c gray5",
"|  c gray10",
" . c gray21",
/* pixels */
"                                                                ",
"                                                                ",
"                                                                ",
"                                                                ",
"                              . X o O + @                       ",
"                          # $ % & & & & *                       ",
"                        = - & & & & ; : @                       ",
"                      > , & & < 1 >                             ",
"                    2 3 & & 4 5                                 ",
"                    6 & & 7 8                                   ",
"                    9 & 0 q                                     ",
"                  q & & 4                                       ",
"                  w & & e 5 r t y % u i .                       ",
"                  p & & a s & & & & & & d f                     ",
"                  g & & h & j k l z x & & c                     ",
"                  v & & & b n       m M & & N                   ",
"                  , & & 4 .           B & & V #                 ",
"                  x & C Z             2 A & & S                 ",
"                  % & D                 F & & G                 ",
"                  3 & & H               J & & K                 ",
"                  L & & P               o & & I                 ",
"                  U & & J               Y & & =                 ",
"                  T C & s .           R j & D                   ",
"                    E & & W         Q ! & & ~                   ",
"                    ^ y & & / ( ) _ c & & ` Z                   ",
"                      ' s & & & & & & & , ]                     ",
"                        [ { y & & & , F }                       ",
"                              |  .}                             ",
"                                                                ",
"                                                                ",
"                                                                ",
"                                                                "
};
