/* XPM */
static char *result[] = {
/* columns rows colors chars-per-pixel */
"32 32 54 1 ",
"  c black",
". c #989898",
"X c #C0C0C0",
"o c #6F6F6F",
"O c gray80",
"+ c white",
"@ c gray58",
"# c #E1E1E1",
"$ c gray35",
"% c #010101",
"& c #D8D8D8",
"* c gray89",
"= c #040404",
"- c #4B4B4B",
"; c #747474",
": c gray76",
"> c gray96",
", c gray5",
"< c #343434",
"1 c #8E8E8E",
"2 c #AFAFAF",
"3 c #FDFDFD",
"4 c #1B1B1B",
"5 c gray15",
"6 c #A9A9A9",
"7 c gray61",
"8 c gray21",
"9 c #151515",
"0 c gray98",
"q c #898989",
"w c #505050",
"e c #F1F1F1",
"r c gray87",
"t c gray47",
"y c gray42",
"u c #060606",
"i c #E9E9E9",
"p c gray93",
"a c #090909",
"s c #656565",
"d c #848484",
"f c #161616",
"g c #535353",
"h c gray62",
"j c #CACACA",
"k c #272727",
"l c gray25",
"z c gray73",
"x c #B6B6B6",
"c c gray28",
"v c #2C2C2C",
"b c #D7D7D7",
"n c gray64",
"m c gray38",
/* pixels */
"                                ",
"                                ",
"                                ",
"                                ",
"        .XXXXXXXXXXXXXXo        ",
"        O++++++++++++++@        ",
"        .XXXXXXXXXXX#++$        ",
"                   %&+*=        ",
"                   -++;         ",
"                   :+>,         ",
"                  <++1          ",
"                  2+34          ",
"                 53+6           ",
"                 7++8           ",
"                90+:            ",
"                q++w            ",
"               ,e+r%            ",
"               t++y             ",
"              ui+pa             ",
"              s++d              ",
"             %r+0f              ",
"             g++h               ",
"             j++k               ",
"            l++z                ",
"            x++c                ",
"           v++b                 ",
"           n++m                 ",
"                                ",
"                                ",
"                                ",
"                                ",
"                                "
};
