/* XPM */
static char *d27f5f15eab84f4edb5a00ae3dbc1d9ea5RA90UkcxXmAc7m[] = {
/* columns rows colors chars-per-pixel */
"32 32 106 2 ",
"   c black",
".  c #191919",
"X  c gray53",
"o  c #BBBBBB",
"O  c #E9E9E9",
"+  c #E7E7E7",
"@  c #B9B9B9",
"#  c gray51",
"$  c gray8",
"%  c #777777",
"&  c gray96",
"*  c white",
"=  c gray94",
"-  c gray42",
";  c #646464",
":  c #FDFDFD",
">  c gray55",
",  c gray32",
"<  c gray34",
"1  c gray58",
"2  c #585858",
"3  c #1D1D1D",
"4  c #F4F4F4",
"5  c #4B4B4B",
"6  c #F1F1F1",
"7  c gray9",
"8  c gray40",
"9  c gray59",
"0  c #A7A7A7",
"q  c #5A5A5A",
"w  c #959595",
"e  c gray54",
"r  c #AAAAAA",
"t  c gray22",
"y  c #414141",
"u  c #A2A2A2",
"i  c #848484",
"p  c gray39",
"a  c #6F6F6F",
"s  c #7B7B7B",
"d  c #2A2A2A",
"f  c gainsboro",
"g  c #070707",
"h  c #0C0C0C",
"j  c #E6E6E6",
"k  c #1B1B1B",
"l  c gray62",
"z  c #CECECE",
"x  c gray28",
"c  c gray7",
"v  c #161616",
"b  c #4C4C4C",
"n  c gray83",
"m  c #8B8B8B",
"M  c #A9A9A9",
"N  c #020202",
"B  c gray12",
"V  c #D2D2D2",
"C  c #C5C5C5",
"Z  c gray30",
"A  c #F6F6F6",
"S  c #8E8E8E",
"D  c gray74",
"F  c gray23",
"G  c gray98",
"H  c gray92",
"J  c gray26",
"K  c gray31",
"L  c #F3F3F3",
"P  c gray16",
"I  c #C0C0C0",
"U  c gray37",
"Y  c gray44",
"T  c gray69",
"R  c #111111",
"E  c #E2E2E2",
"W  c gray1",
"Q  c #ECECEC",
"!  c gray3",
"~  c gray20",
"^  c #B2B2B2",
"/  c gray11",
"(  c gray76",
")  c gray80",
"_  c gray6",
"`  c #EEEEEE",
"'  c #0B0B0B",
"]  c #E1E1E1",
"[  c #A0A0A0",
"{  c gray2",
"}  c gray67",
"|  c #797979",
" . c gray88",
".. c gray85",
"X. c #1E1E1E",
"o. c #252525",
"O. c #6C6C6C",
"+. c #040404",
"@. c gray24",
"#. c gray90",
"$. c #323232",
"%. c #747474",
"&. c gray82",
"*. c #FBFBFB",
"=. c gray81",
"-. c gray18",
/* pixels */
"                                                                ",
"                                                                ",
"                                                                ",
"                                                                ",
"                        . X o O + @ # $                         ",
"                      % & * * * * * * = -                       ",
"                    ; * * : > , < 1 * * * 2                     ",
"                  3 4 * * 5         2 * * 6 7                   ",
"                  8 * * 9             0 * * q                   ",
"                  w * * 5             2 * * e                   ",
"                  r * * t             y * * u                   ",
"                  i * * p             a * * s                   ",
"                  d * * f g         h j * : k                   ",
"                    l * * z x c v b n * * m                     ",
"                    g M * * * * * * * : w N                     ",
"                      B V * * * * * * C v                       ",
"                    Z A * : @ S 1 D * * = F                     ",
"                  t G * H J         K L * L P                   ",
"                  I * * U             Y * * T                   ",
"                R * * E               W Q * : !                 ",
"                ~ * * ^                 o * * d                 ",
"                / * * (                 ) * * _                 ",
"                  ` * = '             R & * ]                   ",
"                  i * * [ W         { } * * |                   ",
"                  g  .* * ..- X.o.O. .* * n +.                  ",
"                    @.#.* * * * * * * *  .$.                    ",
"                      ! %.&.*.* * G =.- {                       ",
"                            { -.d W                             ",
"                                                                ",
"                                                                ",
"                                                                ",
"                                                                "
};
