/* XPM */
static char *ce08c12d93c94848f24e45fa7bc16dbfjmjKpnuIIMULns1m[] = {
/* columns rows colors chars-per-pixel */
"32 32 87 1 ",
"  c black",
". c gray27",
"X c #AFAFAF",
"o c gainsboro",
"O c gray97",
"+ c #C5C5C5",
"@ c #888888",
"# c gray23",
"$ c gray2",
"% c #AAAAAA",
"& c white",
"* c gray58",
"= c #060606",
"- c #D0D0D0",
"; c #6A6A6A",
": c #4B4B4B",
"> c gray51",
", c gray87",
"< c gray79",
"1 c gray39",
"2 c gray6",
"3 c gray9",
"4 c #686868",
"5 c gray82",
"6 c #313131",
"7 c #272727",
"8 c gray88",
"9 c #040404",
"0 c gray13",
"q c #BBBBBB",
"w c #3A3A3A",
"e c gray31",
"r c #909090",
"t c gray38",
"y c gray40",
"u c #717171",
"i c gray22",
"p c #5D5D5D",
"a c gray49",
"s c #101010",
"d c gray61",
"f c #131313",
"g c #FDFDFD",
"h c gray91",
"j c #0B0B0B",
"k c #4E4E4E",
"l c #DADADA",
"z c #B6B6B6",
"x c #939393",
"c c #E6E6E6",
"v c gray80",
"b c gray18",
"n c #929292",
"m c gray3",
"M c #9A9A9A",
"N c gray74",
"B c #959595",
"V c gray63",
"C c #5B5B5B",
"Z c gray90",
"A c gray86",
"S c #4C4C4C",
"D c gray46",
"F c gray28",
"G c gray43",
"H c #6F6F6F",
"J c gray48",
"K c #484848",
"L c gray1",
"P c #F6F6F6",
"I c #6C6C6C",
"U c #A4A4A4",
"Y c gray10",
"T c gray93",
"R c gray17",
"E c gray5",
"W c #838383",
"Q c #F3F3F3",
"! c gray54",
"~ c #1E1E1E",
"^ c gray53",
"/ c gray84",
"( c gray98",
") c #A2A2A2",
"_ c #3C3C3C",
"` c #646464",
"' c gray76",
/* pixels */
"                                ",
"                                ",
"                                ",
"                                ",
"            .XoO+@#             ",
"          $%&&&&&&&*=           ",
"          X&&-;:>,&&<=          ",
"         1&&<2   3,&&4          ",
"         5&&6     7&&89         ",
"        0&&q       X&&w         ",
"        e&&r       t&&y         ",
"        y&&u       i&&r         ",
"        p&&a       s&&q         ",
"        .&&d       9&&o         ",
"        fg&hj      k&&l         ",
"         z&&x     wc&&v         ",
"         bg&&n7m6Mg&&&N         ",
"          4&&&&&&&&B&&V         ",
"           CZ&&&&AS:&&D         ",
"            $FGHi  J&&K         ",
"                  Ll&Pj         ",
"                  I&&U          ",
"                 YT&gR          ",
"               EWQ&&!           ",
"           ~^X/(&&&)=           ",
"           _&&&&&h`             ",
"           _&&&'4j              ",
"                                ",
"                                ",
"                                ",
"                                ",
"                                "
};
