/* XPM */
static char *_c449f8187b24fd9bf3e33de077cd314pkKGCgQLPLwv69pN[] = {
/* columns rows colors chars-per-pixel */
"80 80 11 1 ",
"  c black",
". c #868273",
"X c #3A3836",
"o c #C7C7B0",
"O c #1A0E13",
"+ c #833C22",
"@ c #481A13",
"# c #362917",
"$ c #69552A",
"% c #9F803F",
"& c #3D3F41",
/* pixels */
"                                                                                ",
"                                                                                ",
"                                                                                ",
"                                                                                ",
"                                                                                ",
"                                           ....XXXX                             ",
"                                           ....XXXX                             ",
"                                         ....oo..XXXX                           ",
"                                         ....oo..XXXX                           ",
"                                         ........OOOO                           ",
"                                         ........OOOO                           ",
"                                         XXXX....oo..OO                         ",
"                                         XXXX....oo..OO                         ",
"                                         XXoo..oooo....                         ",
"                                         XXoo..oooo....                         ",
"                                         XXoooo....XXXX                         ",
"                                         XXoooo....XXXX                         ",
"                                       ++OOXX......XX                           ",
"                                       ++OOXX......XX                           ",
"                                     ++++++OOXXXXXXOO                           ",
"                                     ++++++OOXXXXXXOO                           ",
"                                   ++++++++++OOOOOO@@@@                         ",
"                                   ++++++++++OOOOOO@@@@                         ",
"                                 ......++++++oo....oo@@@@                       ",
"                                 ......++++++oo....oo@@@@                       ",
"                               ........XX......ooooXXXX..                       ",
"                               ........XX......ooooXXXX..                       ",
"                             oooo......OO..........XXXX....                     ",
"                             oooo......OO..........XXXX....                     ",
"                             OOooooooOOXXoooo......XX..##..                     ",
"                             OOooooooOOXXoooo......XX..##..                     ",
"                             $$OOOOOOOOXXXXoooooooo..XXOO##                     ",
"                             $$OOOOOOOOXXXXoooooooo..XXOO##                     ",
"                           %%%%%%$$OOOOXXXXXXXX....XXXXOO##                     ",
"                           %%%%%%$$OOOOXXXXXXXX....XXXXOO##                     ",
"                           %%%%%%$$OOOOOOXXXXXXXXXXOOOOOO##                     ",
"                           %%%%%%$$OOOOOOXXXXXXXXXXOOOOOO##                     ",
"                           $$$$$$&&OOOO$$$$XXXXXXXXOOOO##XXXX                   ",
"                           $$$$$$&&OOOO$$$$XXXXXXXXOOOO##XXXX                   ",
"                         ....$$&&&&&&OO$$$$$$oo....oo$$OOXXXX                   ",
"                         ....$$&&&&&&OO$$$$$$oo....oo$$OOXXXX                   ",
"                         ......&&&&&&....$$$$oooooooo$$OOXXXX                   ",
"                         ......&&&&&&....$$$$oooooooo$$OOXXXX                   ",
"                         ......&&&&oo....oo..OOOOOOOO..OOXXXXOO                 ",
"                         ......&&&&oo....oo..OOOOOOOO..OOXXXXOO                 ",
"                         ....XX&&&&oooooo....XXXXOOOO....OOOO##                 ",
"                         ....XX&&&&oooooo....XXXXOOOO....OOOO##                 ",
"                         XXXX$$$$&&........XXXXXXOOOOXXXXOO##$$                 ",
"                         XXXX$$$$&&........XXXXXXOOOOXXXXOO##$$                 ",
"                         %%%%%%$$oo....ooOOXXXXOOOOOOOO..XX$$$$                 ",
"                         %%%%%%$$oo....ooOOXXXXOOOOOOOO..XX$$$$                 ",
"                         $$%%%%  ooooooOOXXXXOOOOOOOOOO....####                 ",
"                         $$%%%%  ooooooOOXXXXOOOOOOOOOO....####                 ",
"                           $$$$  OOOOOOXXXXOO  OOOOOOOOOO..##                   ",
"                           $$$$  OOOOOOXXXXOO  OOOOOOOOOO..##                   ",
"                                   XXXXXXXXOO  OOOOOOOOOO                       ",
"                                   XXXXXXXXOO  OOOOOOOOOO                       ",
"                                   XXXXXXOO      OOOOOOOO                       ",
"                                   XXXXXXOO      OOOOOOOO                       ",
"                                 ..ooooXXOO      OOXX....XX                     ",
"                                 ..ooooXXOO      OOXX....XX                     ",
"                                 ..oooo..XX      XX......XX                     ",
"                                 ..oooo..XX      XX......XX                     ",
"                                 XX....XX        XXXXXXXX                       ",
"                                 XX....XX        XXXXXXXX                       ",
"                                 XXXXXXOO        OOOOOOOO                       ",
"                                 XXXXXXOO        OOOOOOOO                       ",
"                                 XXXXOOOO        OOOOOO                         ",
"                                 XXXXOOOO        OOOOOO                         ",
"                                 XXXXOO          OOOOOO                         ",
"                                 XXXXOO          OOOOOO                         ",
"                                 ....OO          OOOOXX                         ",
"                                 ....OO          OOOOXX                         ",
"                               OOOOOO..          XXXXOOXX                       ",
"                               OOOOOO..          XXXXOOXX                       ",
"                             ..ooooXXOO          OOOO....XXXX                   ",
"                             ..ooooXXOO          OOOO....XXXX                   ",
"                             ..oooo..XX          OOXX......XX                   ",
"                             ..oooo..XX          OOXX......XX                   ",
"                                                                                "
};
