/* XPM */
static char *aa48cb16d672431eb75d09bb10abb1d4YqFaNUBRNKqlBI8t[] = {
/* columns rows colors chars-per-pixel */
"38 38 9 1 ",
"  c white",
". c #36A0F1",
"X c #90D8FF",
"o c #0E2385",
"O c #1047AD",
"+ c #0A0B0F",
"@ c #20243A",
"# c #576A8F",
"$ c #313B55",
/* pixels */
"               .                      ",
"               ..                     ",
"              X..X                    ",
"              oX..X           X       ",
"              ooXX.X         OX       ",
"             ++ooXXX        oO.       ",
"             +++ooXX.      oo.X       ",
"          ++++++++oo.    +@oO.X       ",
"       ++++++++++++++++++++oX.        ",
"       +++++@+++@+++++##++++O.        ",
"       ++++@@++@+@$#########+#        ",
"        +++++++@@$$$$$$$$$####        ",
"        ++++++@@@oX$$$$$$$$$###       ",
"       +++@+++@@@oOXX$$$$$$$$##       ",
"       +++@@++@@@+O@XX$$$$$$$##       ",
"       ++@@@++@@@++O@@###@@$$$#       ",
" XXX   ++@@++@@@+++@@@@###@@$$#       ",
" X..XX+++@@$+@@@++@@@@$####@$$#       ",
" oX...X++@@$+@@+++@@@@$$$$#@$$#       ",
"  oX...X+@@$+@@++++++@@$$###$$##      ",
"  oOXX..X@@$+@@+++++++++++##$$##      ",
"  oooOXX++@$+@@++++O.X++.X##@$$#      ",
"   +++OX+@@$+@@@++++.X@@.X##@$$#      ",
"    ++++@+$$++@@++@@@$$$$$##@$$#      ",
"    +++++@$$++@@++@@@+++$##+@@$##     ",
"    +++++@$$++@@@+@@++++$# +@@$##     ",
"   +++@+++$++++@@+@@@$$$$  +@@$$#.XXX ",
"   ++@@@@+++++++@@+@@@@@   +++@$X...XX",
"   ++@@@@@++++ ++++++++    +++@@OXXXo ",
"  +++@@@@+++++ +++++++     ++++@@Xoo  ",
"  ++@@X@++$++   ++++++     ++@++#oo   ",
" +++@OX++$$++   ++++@@     ++@@@+#    ",
" +++@O.X+$$++   +++@@++    ++@@$+##   ",
" +++oO.X+$+++    ++++@@    ++@$++$#   ",
"++++oO..X$++@    ++++@@@   +++++$$##  ",
"++++o+O.X$++@    +++@@@@   ++++@$$##  ",
"+++++o+O+$++@@   ++++@@@@  ++++@@$##  ",
"++++++++++++@@   ++++++@@  +++++@###  "
};
