/* XPM */
static char *_11f68ea55ab4d1ee2a6eefb687557cdV0cGQXbRtnbWc95r[] = {
/* columns rows colors chars-per-pixel */
"38 38 8 1 ",
"  c black",
". c #3B324A",
"X c #377172",
"o c #292333",
"O c #4FA4A5",
"+ c #ECECE0",
"@ c #E6D1B8",
"# c None",
/* pixels */
"                 .                    ",
"                 ..                   ",
"                 ..                   ",
"                 ...                  ",
"                 ....                 ",
"                 ....                 ",
"                .....                 ",
"                ......                ",
"               X......Xooo            ",
"             oooXX...Ooooooo          ",
"           oooooooOOOooooo...         ",
"          oooooooooooo.......         ",
"         ..oooo.............          ",
"          ................            ",
"           ..........XXXX             ",
"              XXXXXXXXXOO             ",
"              OOOO+.@+.OO             ",
"              OOOO+.@+.OO             ",
"               OOO@@@@@O              ",
"               .....oooo              ",
"              ......oooo              ",
"              ......ooooo             ",
"             .......ooooo             ",
"            .........ooooo            ",
"            .........ooooo            ",
"            .........ooooo            ",
"            .........ooooo            ",
"            .........ooooo            ",
"            .........ooooo            ",
"            ........oooooo            ",
"            ........oooooo            ",
"             .......oooooo            ",
"              .....oooooo             ",
"               #..###oo#              ",
"              ##..###oo##             ",
"              ###########             ",
"               #########              ",
"                                      "
};
