/* XPM */
static char *_b893894aef344f996e12a30a6fd413c8wgxEDd4pD7aRnYj[] = {
/* columns rows colors chars-per-pixel */
"38 38 9 1 ",
"  c black",
". c #3B324A",
"X c #377172",
"o c #292333",
"O c #4FA4A5",
"+ c #A2A29A",
"@ c #9E907F",
"# c #E6D1B8",
"$ c None",
/* pixels */
"                                      ",
"                 .                    ",
"                 .                    ",
"                 ..                   ",
"                 ..                   ",
"                 ...                  ",
"                 ....                 ",
"                .....                 ",
"                .....                 ",
"                ......                ",
"               X......Xooooo.         ",
"             oooXX...Ooooooo.         ",
"         .ooooooooOOOooooo...         ",
"         .oooooooooooo......          ",
"          .oooo............           ",
"           ...............            ",
"            .........+oXXX            ",
"             XXXXX+o@+.OOO            ",
"             OOOOO#####OOO            ",
"              OOOOOoooOOO             ",
"               .....oooo              ",
"              ......oooo              ",
"              ......ooooo             ",
"             .......ooooo             ",
"            .........ooooo            ",
"            .........ooooo            ",
"            .........ooooo            ",
"            .........ooooo            ",
"            .........ooooo            ",
"            ........oooooo            ",
"            ........oooooo            ",
"             .......ooooo             ",
"               ....ooooo              ",
"              $$..$$$oo$$             ",
"              $$$$$$$$$$$             ",
"               $$$$$$$$$              ",
"                                      ",
"                                      "
};
