/* XPM */
static char *_0f9a749284e44abf8ffa12a8ea0841dIB7Asu25Y2RkXT21[] = {
/* columns rows colors chars-per-pixel */
"38 38 10 1 ",
"  c black",
". c #3B324A",
"X c #377172",
"o c #292333",
"O c #4FA4A5",
"+ c #A2A29A",
"@ c #9E907F",
"# c #ECECE0",
"$ c #E6D1B8",
"% c None",
/* pixels */
"                  .                   ",
"                  .                   ",
"                  ..                  ",
"                  ..                  ",
"                 ...                  ",
"                 ....                 ",
"                 ....                 ",
"                .....                 ",
"                ......                ",
"               X......Xooo            ",
"             oooXX...Ooooooo          ",
"           oooooooOOOooooo...         ",
"          oooooooooooo.......         ",
"         ..oooo.............          ",
"          ................            ",
"           ..........XXXX             ",
"              XXXX+o@+.OO             ",
"              OOOO#.$#.OO             ",
"              OOOO$$$$$OO             ",
"               OOOOoooOO              ",
"               .....oooo              ",
"              ......oooo              ",
"              ......ooooo             ",
"             .......ooooo             ",
"             ........oooo             ",
"             ........oooo             ",
"             ........oooo             ",
"             ........oooo             ",
"             ........oooo             ",
"             .......ooooo             ",
"             .......ooooo             ",
"              ......ooooo             ",
"               ....ooooo              ",
"               OOOO XXXX              ",
"               %..%%%oo%              ",
"              %%..%%%oo%%             ",
"              %%%%%%%%%%%             ",
"               %%%%%%%%%              "
};
