/* XPM */
static char *e0495059720e4c53fded11869ab12a0ejXKkadHAw7xBG22J[] = {
/* columns rows colors chars-per-pixel */
"38 38 8 1 ",
"  c black",
". c #3B324A",
"X c #377172",
"o c #292333",
"O c #4FA4A5",
"+ c #ECECE0",
"@ c #E6D1B8",
"# c None",
/* pixels */
"                                      ",
"              ...                     ",
"              .....                   ",
"               ....                   ",
"                ....                  ",
"                ....                  ",
"               .....                  ",
"               ......                 ",
"              X......Xo               ",
"             ooXX...Oooooo            ",
"           ooooooOOOoooooo.           ",
"          ooooooooooooo.....          ",
"         .ooooooo...........          ",
"         .................            ",
"          ..........XXXX              ",
"             XXXXXXXXXOO              ",
"             OOOO+.@+.OO              ",
"             OOOO+.@+.OO              ",
"              OOO@@@@@O               ",
"              .....oooo               ",
"             ......oooo               ",
"             ......ooooo              ",
"            .......ooooo              ",
"           .........ooooo             ",
"           .........ooooo             ",
"           .........ooooo             ",
"           .........ooooo             ",
"           .........ooooo             ",
"           .........ooooo             ",
"           ........oooooo             ",
"           ........oooooo             ",
"            .......oooooo             ",
"             .....oooooo              ",
"              #..###oo#               ",
"             ##..###oo##              ",
"             ###########              ",
"              #########               ",
"                                      "
};
