/* XPM */
static char *bbd9a201e3f745c4ea82deebe7ba5e868wL6vd5kBFd8gCx3[] = {
/* columns rows colors chars-per-pixel */
"38 38 10 1 ",
"  c black",
". c #3B324A",
"X c #377172",
"o c #292333",
"O c #4FA4A5",
"+ c #A2A29A",
"@ c #9E907F",
"# c #ECECE0",
"$ c #E6D1B8",
"% c None",
/* pixels */
"                .                     ",
"                ..                    ",
"                ...                   ",
"                 ..                   ",
"                 ...                  ",
"                 ...                  ",
"                ....                  ",
"               ......                 ",
"              X......Xoo              ",
"             ooXX...Ooooooo.          ",
"           ooooooOOOooooo....         ",
"         oooooooooooo........         ",
"        ..oooooo............          ",
"         ...oo.............           ",
"          ..........XXXX              ",
"             XXXX+o@+.OO              ",
"             OOOO#.$#.OO              ",
"              OOO$$$$$O               ",
"              OOOOoooOO               ",
"               ....ooo                ",
"              .....oooo               ",
"             ......oooo               ",
"             ......ooooo              ",
"            ........oooo              ",
"            ........oooo              ",
"            ........oooo              ",
"            ........oooo              ",
"            .......ooooo              ",
"             ......ooooo              ",
"             ......oooo               ",
"             ......oooo               ",
"              ....ooooo               ",
"              ....ooooo               ",
"               OO   XX                ",
"              %..%%%oo%               ",
"             %%..%%%oo%%              ",
"             %%%%%%%%%%%              ",
"              %%%%%%%%%               "
};
