/* XPM */
static char *_16a9f2f2a7948c8a6c434fb2d42a230t3x8mib4e1Dbrs5Z[] = {
/* columns rows colors chars-per-pixel */
"38 38 10 1 ",
"  c black",
". c #3B324A",
"X c #377172",
"o c #292333",
"O c #4FA4A5",
"+ c #A2A29A",
"@ c #9E907F",
"# c #ECECE0",
"$ c #E6D1B8",
"% c None",
/* pixels */
"                ..                    ",
"                ..                    ",
"                ...                   ",
"                ....                  ",
"                ....                  ",
"               .....                  ",
"               ......                 ",
"              X......Xo               ",
"             ooXX...Oooooo            ",
"           ooooooOOOooooo..           ",
"          ooooooooooo.......          ",
"         .oooo..............          ",
"         .................            ",
"         ...........XXXX              ",
"           ..XXXX+o@+.OO              ",
"             OOOO#.$#.O               ",
"              OOO$$$$$O               ",
"              OOOOoooOO               ",
"              .....oooo               ",
"             ......oooo               ",
"             ......ooooo              ",
"            .......ooooo              ",
"            ........oooo              ",
"            ........oooo              ",
"            ........oooo              ",
"            ........oooo              ",
"             ......ooooo              ",
"             ......ooooo              ",
"             ......oooo               ",
"             ......oooo               ",
"              ....ooooo               ",
"              ....ooooo               ",
"              OOOO XXXX               ",
"               OO   XX                ",
"              %..%%%oo%               ",
"             %%..%%%oo%%              ",
"             %%%%%%%%%%%              ",
"              %%%%%%%%%               "
};
